<?xml version="1.0" encoding="iso-8859-1"?>
<!-- Uploaded to: SVG Repo, www.svgrepo.com, Generator: SVG Repo Mixer Tools -->
<svg height="800px" width="800px" version="1.1" id="Layer_1" xmlns="http://www.w3.org/2000/svg" xmlns:xlink="http://www.w3.org/1999/xlink" 
	 viewBox="0 0 512 512" xml:space="preserve">
<circle style="fill:#CFF09E;" cx="402.402" cy="306.757" r="96.143"/>
<path style="fill:#507C5C;" d="M402.406,197.166c-11.397,0-22.393,1.753-32.734,4.997l-36.161-79.621h42.324
	c18.536,0,33.616,15.08,33.616,33.616c0,7.427,6.021,13.447,13.447,13.447c7.425,0,13.447-6.02,13.447-13.447
	c0-33.365-27.145-60.51-60.51-60.51h-63.199c-4.57,0-8.829,2.322-11.305,6.165c-2.476,3.842-2.829,8.68-0.939,12.841l34.979,77.022
	h-104.76c-7.425,0-13.447,6.02-13.447,13.447c0,7.427,6.021,13.447,13.447,13.447h87.283l-83.123,78.777h-16.004
	c-1.402-16.308-6.417-32.129-14.74-46.229c-3.773-6.394-12.016-8.517-18.414-4.745c-6.395,3.776-8.52,12.02-4.744,18.415
	c5.879,9.961,9.567,21.071,10.878,32.56H128.28l25.737-76.807c0.013-0.038,0.031-0.071,0.044-0.109
	c0.023-0.065,0.036-0.13,0.058-0.195l3.632-10.841c0.009-0.028,0.015-0.058,0.024-0.086c0.095-0.294,0.175-0.594,0.251-0.897
	c0.036-0.145,0.081-0.29,0.112-0.437c0.051-0.234,0.085-0.473,0.124-0.711c0.036-0.221,0.077-0.441,0.101-0.662
	c0.017-0.165,0.024-0.335,0.036-0.503c0.022-0.293,0.042-0.585,0.044-0.877c0-0.034,0.005-0.067,0.005-0.101v-53.447h26.893
	c7.425,0,13.447-6.02,13.447-13.447s-6.021-13.447-13.447-13.447h-80.679c-7.425,0-13.447,6.02-13.447,13.447
	s6.021,13.447,13.447,13.447h26.893v47.71c-7.191-1.464-14.534-2.219-21.962-2.219C49.165,197.166,0,246.329,0,306.758
	c0,60.43,49.165,109.594,109.594,109.594c54.48,0,99.786-39.965,108.183-92.113h22.355c3.442,0,6.752-1.319,9.25-3.687
	l48.167-45.648c-3.07,10.086-4.736,20.778-4.736,31.855c0,60.43,49.165,109.594,109.594,109.594S512,367.188,512,306.758
	C512,246.329,462.835,197.166,402.406,197.166z M109.594,389.459c-45.601,0-82.7-37.099-82.7-82.701s37.099-82.699,82.7-82.699
	c4.882,0,9.712,0.43,14.458,1.267L96.844,306.52c-1.374,4.101-0.692,8.615,1.834,12.126c2.527,3.511,6.589,5.592,10.915,5.592
	h80.825C182.372,361.471,149.198,389.459,109.594,389.459z M402.406,389.459c-45.601,0-82.701-37.099-82.701-82.701
	c0-28.6,14.596-53.851,36.728-68.707l33.728,74.268c2.252,4.959,7.139,7.889,12.251,7.889c1.86,0,3.749-0.389,5.552-1.206
	c6.762-3.071,9.754-11.041,6.684-17.803l-33.739-74.288c6.859-1.848,14.061-2.851,21.494-2.851
	c45.601,0,82.701,37.099,82.701,82.699S448.008,389.459,402.406,389.459z"/>
</svg>